<?xml version="1.0" encoding="utf-8"?>
<svg xmlns="http://www.w3.org/2000/svg" height="48" width="48" viewBox="0 0 48 48">
  <g>
    <path id="path1" transform="rotate(0,24,24) translate(2,16.1066796480847) scale(0.211501860039943,0.211501860039943)  " fill="#000000" d="M-0.19200000166893,27.8886680603027L13.7279996871948,27.8886680603027 26.496000289917,61.5846710205078 36.2880020141602,35.8566703796387 29.9519996643066,35.8566703796387 29.9519996643066,27.8886680603027 48.1920013427734,27.8886680603027 30.7200012207031,74.0646667480469 22.6560001373291,74.0646667480469 7.8720006942749,35.8566703796387 -0.19200000166893,35.8566703796387 -0.19200000166893,27.8886680603027z M52.2253303527832,27.8886680603027L68.2573318481445,27.8886680603027 68.2573318481445,65.3286666870117 75.1693344116211,65.3286666870117 75.1693344116211,73.2966690063477 59.3293304443359,73.2966690063477 59.3293304443359,35.8566703796387 52.2253303527832,35.8566703796387 52.2253303527832,27.8886680603027z M63.457332611084,7.15267181396484L65.5093307495117,7.53667163848877 67.2493286132813,8.68866729736328 68.4373321533203,10.4166679382324 68.8333282470703,12.5286674499512 68.4373321533203,14.5806703567505 67.2493286132813,16.3206672668457 65.5093307495117,17.5086708068848 63.457332611084,17.9046669006348 61.3453330993652,17.5086708068848 59.6173324584961,16.3206672668457 58.46533203125,14.5806703567505 58.0813331604004,12.5286674499512 58.46533203125,10.4766712188721 59.6173324584961,8.73667144775391 61.3453330993652,7.54867172241211 63.457332611084,7.15267181396484z M79.1066665649414,8.1126708984375L96.0986709594727,8.1126708984375 96.0986709594727,65.3286666870117 103.010665893555,65.3286666870117 103.010665893555,73.2966690063477 87.1706695556641,73.2966690063477 87.1706695556641,15.9846687316895 79.1066665649414,15.9846687316895 79.1066665649414,8.1126708984375z M107.139999389648,8.1126708984375L124.13200378418,8.1126708984375 124.13200378418,65.3286666870117 131.044006347656,65.3286666870117 131.044006347656,73.2966690063477 115.204002380371,73.2966690063477 115.204002380371,15.9846687316895 107.139999389648,15.9846687316895 107.139999389648,8.1126708984375z M160.709320068359,33.8406677246094L158.120315551758,34.0596694946289 155.72932434082,34.716667175293 153.536315917969,35.8116683959961 151.541320800781,37.344669342041 148.481323242188,41.3646659851074 146.885330200195,46.4166679382324 175.49333190918,46.4166679382324 174.863327026367,44.0736694335938 173.837326049805,41.844669342041 172.415328979492,39.7296676635742 170.597320556641,37.7286682128906 168.467330932617,36.0276679992676 166.109329223633,34.8126678466797 163.523330688477,34.083667755127 160.709320068359,33.8406677246094z M160.421325683594,26.6406669616699L164.876327514648,27.0516662597656 169.121322631836,28.28466796875 173.156326293945,30.3396682739258 176.981323242188,33.216667175293 180.254318237305,36.90966796875 182.633316040039,41.412670135498 184.118316650391,46.7256698608398 184.709320068359,52.8486709594727 146.597320556641,52.8486709594727 147.191329956055,55.8636703491211 148.205322265625,58.5726699829102 149.63932800293,60.9756698608398 151.49333190918,63.0726699829102 153.701324462891,64.7736740112305 156.197326660156,65.9886703491211 158.981323242188,66.7176742553711 162.053329467773,66.9606704711914 166.469329833984,66.4866714477539 170.405334472656,65.0646667480469 173.861328125,62.6946716308594 176.837326049805,59.3766708374023 184.709320068359,62.9286689758301 182.645324707031,65.7126693725586 180.293319702148,68.1126708984375 177.6533203125,70.1286697387695 174.725326538086,71.7606658935547 168.43733215332,73.9206695556641 161.861328125,74.6406707763672 156.863327026367,74.2326736450195 152.237335205078,73.0086669921875 147.983337402344,70.9686660766602 144.101333618164,68.1126708984375 140.867324829102,64.5726699829102 138.557327270508,60.4806709289551 137.171325683594,55.836669921875 136.709320068359,50.6406707763672 137.159317016602,45.6396713256836 138.509323120117,41.1006698608398 140.759323120117,37.0236701965332 143.909332275391,33.4086685180664 147.641326904297,30.4476680755615 151.637329101563,28.3326683044434 155.897323608398,27.0636672973633 160.421325683594,26.6406669616699z M196.515991210938,61.776668548584L208.035995483398,61.776668548584 208.035995483398,73.2966690063477 196.515991210938,73.2966690063477 196.515991210938,61.776668548584z" />
  </g>
</svg>
