<?xml version="1.0" encoding="utf-8"?>
<svg xmlns="http://www.w3.org/2000/svg" height="500" width="500" viewBox="0 0 500 500">
  <g>
    <path id="path1" transform="rotate(0,250,250) translate(2.8421709430404E-14,211.72210513018) scale(1.02565784770358,1.02565784770358)  " fill="#242424" d="M-0.19200000166893,27.8886680603027L13.7279996871948,27.8886680603027 26.496000289917,61.5846710205078 36.2880020141602,35.8566703796387 29.9519996643066,35.8566703796387 29.9519996643066,27.8886680603027 48.1920013427734,27.8886680603027 30.7200012207031,74.0646667480469 22.6560001373291,74.0646667480469 7.8720006942749,35.8566703796387 -0.19200000166893,35.8566703796387 -0.19200000166893,27.8886680603027z M52.2253303527832,27.8886680603027L68.2573318481445,27.8886680603027 68.2573318481445,65.3286666870117 75.1693344116211,65.3286666870117 75.1693344116211,73.2966690063477 59.3293304443359,73.2966690063477 59.3293304443359,35.8566703796387 52.2253303527832,35.8566703796387 52.2253303527832,27.8886680603027z M63.457332611084,7.15267181396484L65.5093307495117,7.53667163848877 67.2493286132813,8.68866729736328 68.4373321533203,10.4166679382324 68.8333282470703,12.5286674499512 68.4373321533203,14.5806703567505 67.2493286132813,16.3206672668457 65.5093307495117,17.5086708068848 63.457332611084,17.9046669006348 61.3453330993652,17.5086708068848 59.6173324584961,16.3206672668457 58.46533203125,14.5806703567505 58.0813331604004,12.5286674499512 58.46533203125,10.4766712188721 59.6173324584961,8.73667144775391 61.3453330993652,7.54867172241211 63.457332611084,7.15267181396484z M79.1066665649414,8.1126708984375L96.0986709594727,8.1126708984375 96.0986709594727,65.3286666870117 103.010665893555,65.3286666870117 103.010665893555,73.2966690063477 87.1706695556641,73.2966690063477 87.1706695556641,15.9846687316895 79.1066665649414,15.9846687316895 79.1066665649414,8.1126708984375z M107.139999389648,8.1126708984375L124.13200378418,8.1126708984375 124.13200378418,65.3286666870117 131.044006347656,65.3286666870117 131.044006347656,73.2966690063477 115.204002380371,73.2966690063477 115.204002380371,15.9846687316895 107.139999389648,15.9846687316895 107.139999389648,8.1126708984375z M160.709320068359,33.8406677246094L158.120315551758,34.0596694946289 155.72932434082,34.716667175293 153.536315917969,35.8116683959961 151.541320800781,37.344669342041 148.481323242188,41.3646659851074 146.885330200195,46.4166679382324 175.49333190918,46.4166679382324 174.863327026367,44.0736694335938 173.837326049805,41.844669342041 172.415328979492,39.7296676635742 170.597320556641,37.7286682128906 168.467330932617,36.0276679992676 166.109329223633,34.8126678466797 163.523330688477,34.083667755127 160.709320068359,33.8406677246094z M160.421325683594,26.6406669616699L164.876327514648,27.0516662597656 169.121322631836,28.28466796875 173.156326293945,30.3396682739258 176.981323242188,33.216667175293 180.254318237305,36.90966796875 182.633316040039,41.412670135498 184.118316650391,46.7256698608398 184.709320068359,52.8486709594727 146.597320556641,52.8486709594727 147.191329956055,55.8636703491211 148.205322265625,58.5726699829102 149.63932800293,60.9756698608398 151.49333190918,63.0726699829102 153.701324462891,64.7736740112305 156.197326660156,65.9886703491211 158.981323242188,66.7176742553711 162.053329467773,66.9606704711914 166.469329833984,66.4866714477539 170.405334472656,65.0646667480469 173.861328125,62.6946716308594 176.837326049805,59.3766708374023 184.709320068359,62.9286689758301 182.645324707031,65.7126693725586 180.293319702148,68.1126708984375 177.6533203125,70.1286697387695 174.725326538086,71.7606658935547 168.43733215332,73.9206695556641 161.861328125,74.6406707763672 156.863327026367,74.2326736450195 152.237335205078,73.0086669921875 147.983337402344,70.9686660766602 144.101333618164,68.1126708984375 140.867324829102,64.5726699829102 138.557327270508,60.4806709289551 137.171325683594,55.836669921875 136.709320068359,50.6406707763672 137.159317016602,45.6396713256836 138.509323120117,41.1006698608398 140.759323120117,37.0236701965332 143.909332275391,33.4086685180664 147.641326904297,30.4476680755615 151.637329101563,28.3326683044434 155.897323608398,27.0636672973633 160.421325683594,26.6406669616699z M196.515991210938,61.776668548584L208.035995483398,61.776668548584 208.035995483398,73.2966690063477 196.515991210938,73.2966690063477 196.515991210938,61.776668548584z M218.021331787109,8.1126708984375L268.613342285156,8.1126708984375 268.613342285156,27.6966667175293 260.549346923828,27.6966667175293 260.549346923828,16.2726669311523 236.165328979492,16.2726669311523 236.165328979492,35.5686683654785 257.189331054688,35.5686683654785 257.189331054688,43.7286682128906 236.165328979492,43.7286682128906 236.165328979492,65.1366729736328 244.421340942383,65.1366729736328 244.421340942383,73.2966690063477 226.277328491211,73.2966690063477 226.277328491211,16.2726669311523 218.021331787109,16.2726669311523 218.021331787109,8.1126708984375z M271.206665039063,8.1126708984375L288.198638916016,8.1126708984375 288.198638916016,65.3286666870117 295.110656738281,65.3286666870117 295.110656738281,73.2966690063477 279.270660400391,73.2966690063477 279.270660400391,15.9846687316895 271.206665039063,15.9846687316895 271.206665039063,8.1126708984375z M299.816009521484,27.8886680603027L315.175994873047,27.8886680603027 315.175994873047,55.5366668701172 315.191009521484,57.8706665039063 315.235992431641,59.78466796875 315.311004638672,61.2786674499512 315.416015625,62.352668762207 315.944000244141,63.9246673583984 317.048004150391,65.1846694946289 318.596008300781,66.0126647949219 320.455993652344,66.2886657714844 323.623992919922,65.9226684570313 326.888000488281,64.8246688842773 330.248016357422,62.9946708679199 333.704010009766,60.4326705932617 333.704010009766,35.8566703796387 325.640014648438,35.8566703796387 325.640014648438,27.8886680603027 342.632019042969,27.8886680603027 342.632019042969,65.3286666870117 350.408020019531,65.3286666870117 350.408020019531,73.2966690063477 333.704010009766,73.2966690063477 333.704010009766,68.1126708984375 329.816009521484,70.716667175293 326.024017333984,72.5766677856445 322.328002929688,73.6926651000977 318.727996826172,74.0646667480469 314.528015136719,73.5606689453125 311.144012451172,72.0486679077148 308.671997070313,69.7446670532227 307.2080078125,66.8646697998047 306.787994384766,65.0406723022461 306.488006591797,62.7366676330566 306.308013916016,59.9526672363281 306.248016357422,56.6886672973633 306.248016357422,35.8566703796387 299.816009521484,35.8566703796387 299.816009521484,27.8886680603027z M378.822662353516,33.8406677246094L376.233673095703,34.0596694946289 373.842681884766,34.716667175293 371.649658203125,35.8116683959961 369.654663085938,37.344669342041 366.594665527344,41.3646659851074 364.998657226563,46.4166679382324 393.606658935547,46.4166679382324 392.976654052734,44.0736694335938 391.95068359375,41.844669342041 390.528686523438,39.7296676635742 388.710662841797,37.7286682128906 386.580657958984,36.0276679992676 384.22265625,34.8126678466797 381.636657714844,34.083667755127 378.822662353516,33.8406677246094z M378.53466796875,26.6406669616699L382.989685058594,27.0516662597656 387.234680175781,28.28466796875 391.269683837891,30.3396682739258 395.094665527344,33.216667175293 398.36767578125,36.90966796875 400.746673583984,41.412670135498 402.231658935547,46.7256698608398 402.822662353516,52.8486709594727 364.710662841797,52.8486709594727 365.304656982422,55.8636703491211 366.318664550781,58.5726699829102 367.752655029297,60.9756698608398 369.606658935547,63.0726699829102 371.814666748047,64.7736740112305 374.310668945313,65.9886703491211 377.094665527344,66.7176742553711 380.166656494141,66.9606704711914 384.582672119141,66.4866714477539 388.518676757813,65.0646667480469 391.974670410156,62.6946716308594 394.95068359375,59.3766708374023 402.822662353516,62.9286689758301 400.758666992188,65.7126693725586 398.406677246094,68.1126708984375 395.766662597656,70.1286697387695 392.838684082031,71.7606658935547 386.550659179688,73.9206695556641 379.974670410156,74.6406707763672 374.976684570313,74.2326736450195 370.350677490234,73.0086669921875 366.0966796875,70.9686660766602 362.214660644531,68.1126708984375 358.980682373047,64.5726699829102 356.670654296875,60.4806709289551 355.28466796875,55.836669921875 354.822662353516,50.6406707763672 355.272674560547,45.6396713256836 356.622650146484,41.1006698608398 358.872650146484,37.0236701965332 362.022674560547,33.4086685180664 365.754669189453,30.4476680755615 369.750671386719,28.3326683044434 374.010650634766,27.0636672973633 378.53466796875,26.6406669616699z M441.509338378906,27.216667175293L445.541320800781,27.7326698303223 448.805328369141,29.2806701660156 451.181335449219,31.5846691131592 452.54931640625,34.3686676025391 453.197326660156,38.1006698608398 453.413330078125,43.2486686706543 453.413330078125,65.3286666870117 461.093322753906,65.3286666870117 461.093322753906,73.2966690063477 444.485321044922,73.2966690063477 444.485321044922,43.6326675415039 444.389312744141,41.2656707763672 444.101318359375,39.3486709594727 443.621307373047,37.8816680908203 442.949310302734,36.8646697998047 441.245300292969,35.6766700744629 439.205322265625,35.2806701660156 436.139312744141,35.646671295166 432.893310546875,36.7446708679199 429.467315673828,38.5746688842773 425.861328125,41.1366691589355 425.861328125,65.3286666870117 433.637329101563,65.3286666870117 433.637329101563,73.2966690063477 416.933319091797,73.2966690063477 416.933319091797,35.8566703796387 408.96533203125,35.8566703796387 408.96533203125,27.8886680603027 425.861328125,27.8886680603027 425.861328125,33.360668182373 430.043334960938,30.6726684570313 434.045318603516,28.7526683807373 437.867309570313,27.6006679534912 441.509338378906,27.216667175293z M470.212005615234,12.8166694641113L479.140014648438,12.8166694641113 479.140014648438,27.8886680603027 487.492004394531,27.8886680603027 487.492004394531,35.8566703796387 479.140014648438,35.8566703796387 479.140014648438,57.8406677246094 479.176025390625,60.2676696777344 479.283996582031,62.1726684570313 479.463989257813,63.5556716918945 479.716003417969,64.4166717529297 480.723999023438,65.3166656494141 482.596008300781,65.6166687011719 485.067993164063,65.4006652832031 487.492004394531,64.7526702880859 487.492004394531,72.8166656494141 484.059997558594,73.7526702880859 480.675994873047,74.0646667480469 476.944000244141,73.6086730957031 474.003997802734,72.2406692504883 471.940002441406,70.2006683349609 470.835998535156,67.7286682128906 470.563018798828,66.1326675415039 470.368011474609,64.0326690673828 470.251007080078,61.4286689758301 470.212005615234,58.320671081543 470.212005615234,35.8566703796387 464.260009765625,35.8566703796387 464.260009765625,27.8886680603027 470.212005615234,27.8886680603027 470.212005615234,12.8166694641113z" />
  </g>
</svg>
